<svg width="437" height="140" viewBox="0 0 437 140" fill="none" xmlns="http://www.w3.org/2000/svg">
<rect x="189.944" y="5.97598" width="24.568" height="25.232" fill="white"/>
<rect x="176" y="36.52" width="38.512" height="39.176" fill="white"/>
<rect x="220.488" y="20.584" width="38.512" height="28.552" fill="white"/>
<rect x="220.488" y="55.112" width="24.568" height="24.568" fill="white"/>
<rect x="220.488" width="24.568" height="14.608" fill="white"/>
<path d="M17.4098 111.696C17.2734 110.486 16.7109 109.548 15.7223 108.884C14.7336 108.21 13.4893 107.874 11.9893 107.874C10.9155 107.874 9.98648 108.044 9.20239 108.385C8.4183 108.717 7.80892 109.178 7.37426 109.766C6.94813 110.345 6.73506 111.006 6.73506 111.747C6.73506 112.369 6.87995 112.906 7.16972 113.358C7.46801 113.81 7.8558 114.189 8.33307 114.496C8.81887 114.794 9.33875 115.045 9.89273 115.25C10.4467 115.446 10.9794 115.608 11.4907 115.736L14.0476 116.401C14.8828 116.605 15.7393 116.882 16.6172 117.232C17.495 117.581 18.3089 118.041 19.0589 118.612C19.8089 119.183 20.414 119.891 20.8743 120.734C21.343 121.578 21.5774 122.588 21.5774 123.764C21.5774 125.247 21.1939 126.564 20.4268 127.715C19.6683 128.865 18.5646 129.773 17.1157 130.438C15.6754 131.102 13.9325 131.435 11.887 131.435C9.92682 131.435 8.2308 131.124 6.79898 130.501C5.36716 129.879 4.24642 128.997 3.43676 127.855C2.6271 126.705 2.17966 125.341 2.09443 123.764H6.0575C6.13421 124.71 6.44103 125.499 6.97796 126.129C7.52341 126.751 8.21801 127.216 9.06176 127.523C9.91404 127.821 10.8473 127.97 11.8615 127.97C12.978 127.97 13.9709 127.795 14.8402 127.446C15.718 127.088 16.4084 126.594 16.9112 125.963C17.414 125.324 17.6655 124.578 17.6655 123.726C17.6655 122.95 17.4439 122.315 17.0007 121.821C16.566 121.327 15.9737 120.918 15.2237 120.594C14.4822 120.27 13.6427 119.984 12.7052 119.737L9.61148 118.893C7.51489 118.322 5.85296 117.483 4.62568 116.375C3.40693 115.267 2.79756 113.801 2.79756 111.977C2.79756 110.469 3.20665 109.152 4.02483 108.027C4.84301 106.902 5.95097 106.028 7.3487 105.406C8.74642 104.776 10.3231 104.46 12.0788 104.46C13.8515 104.46 15.4155 104.771 16.7706 105.393C18.1342 106.016 19.2081 106.872 19.9922 107.963C20.7763 109.045 21.1853 110.29 21.2194 111.696H17.4098ZM36.1979 131V104.818H45.5303C47.5672 104.818 49.2547 105.189 50.5928 105.93C51.9309 106.672 52.9323 107.686 53.5971 108.973C54.2618 110.251 54.5942 111.692 54.5942 113.294C54.5942 114.905 54.2576 116.354 53.5843 117.641C52.9195 118.919 51.9138 119.933 50.5672 120.683C49.2292 121.425 47.5459 121.795 45.5175 121.795H39.0999V118.446H45.1596C46.4465 118.446 47.4905 118.224 48.2917 117.781C49.0928 117.33 49.6809 116.716 50.0559 115.94C50.4309 115.165 50.6184 114.283 50.6184 113.294C50.6184 112.305 50.4309 111.428 50.0559 110.661C49.6809 109.893 49.0885 109.293 48.2789 108.858C47.4777 108.423 46.4209 108.206 45.1084 108.206H40.1482V131H36.1979ZM73.0755 104.818V131H69.1253V104.818H73.0755ZM109.86 104.818V131H106.23L92.9216 111.798H92.6787V131H88.7284V104.818H92.3846L105.706 124.045H105.949V104.818H109.86ZM125.523 131V104.818H141.938V108.219H129.473V116.196H141.081V119.584H129.473V127.599H142.091V131H125.523ZM157.114 131V104.818H161.065V127.599H172.928V131H157.114ZM187.335 131V104.818H203.749V108.219H191.285V116.196H202.893V119.584H191.285V127.599H203.903V131H187.335ZM233.206 111.696C233.07 110.486 232.507 109.548 231.518 108.884C230.53 108.21 229.285 107.874 227.785 107.874C226.712 107.874 225.783 108.044 224.998 108.385C224.214 108.717 223.605 109.178 223.17 109.766C222.744 110.345 222.531 111.006 222.531 111.747C222.531 112.369 222.676 112.906 222.966 113.358C223.264 113.81 223.652 114.189 224.129 114.496C224.615 114.794 225.135 115.045 225.689 115.25C226.243 115.446 226.775 115.608 227.287 115.736L229.844 116.401C230.679 116.605 231.535 116.882 232.413 117.232C233.291 117.581 234.105 118.041 234.855 118.612C235.605 119.183 236.21 119.891 236.67 120.734C237.139 121.578 237.373 122.588 237.373 123.764C237.373 125.247 236.99 126.564 236.223 127.715C235.464 128.865 234.361 129.773 232.912 130.438C231.471 131.102 229.729 131.435 227.683 131.435C225.723 131.435 224.027 131.124 222.595 130.501C221.163 129.879 220.043 128.997 219.233 127.855C218.423 126.705 217.976 125.341 217.891 123.764H221.854C221.93 124.71 222.237 125.499 222.774 126.129C223.32 126.751 224.014 127.216 224.858 127.523C225.71 127.821 226.643 127.97 227.658 127.97C228.774 127.97 229.767 127.795 230.636 127.446C231.514 127.088 232.204 126.594 232.707 125.963C233.21 125.324 233.462 124.578 233.462 123.726C233.462 122.95 233.24 122.315 232.797 121.821C232.362 121.327 231.77 120.918 231.02 120.594C230.278 120.27 229.439 119.984 228.501 119.737L225.408 118.893C223.311 118.322 221.649 117.483 220.422 116.375C219.203 115.267 218.594 113.801 218.594 111.977C218.594 110.469 219.003 109.152 219.821 108.027C220.639 106.902 221.747 106.028 223.145 105.406C224.543 104.776 226.119 104.46 227.875 104.46C229.648 104.46 231.212 104.771 232.567 105.393C233.93 106.016 235.004 106.872 235.788 107.963C236.572 109.045 236.981 110.29 237.016 111.696H233.206ZM266.274 111.696C266.137 110.486 265.575 109.548 264.586 108.884C263.598 108.21 262.353 107.874 260.853 107.874C259.78 107.874 258.851 108.044 258.066 108.385C257.282 108.717 256.673 109.178 256.238 109.766C255.812 110.345 255.599 111.006 255.599 111.747C255.599 112.369 255.744 112.906 256.034 113.358C256.332 113.81 256.72 114.189 257.197 114.496C257.683 114.794 258.203 115.045 258.757 115.25C259.311 115.446 259.843 115.608 260.355 115.736L262.912 116.401C263.747 116.605 264.603 116.882 265.481 117.232C266.359 117.581 267.173 118.041 267.923 118.612C268.673 119.183 269.278 119.891 269.738 120.734C270.207 121.578 270.441 122.588 270.441 123.764C270.441 125.247 270.058 126.564 269.291 127.715C268.532 128.865 267.429 129.773 265.98 130.438C264.539 131.102 262.797 131.435 260.751 131.435C258.791 131.435 257.095 131.124 255.663 130.501C254.231 129.879 253.11 128.997 252.301 127.855C251.491 126.705 251.044 125.341 250.958 123.764H254.922C254.998 124.71 255.305 125.499 255.842 126.129C256.387 126.751 257.082 127.216 257.926 127.523C258.778 127.821 259.711 127.97 260.726 127.97C261.842 127.97 262.835 127.795 263.704 127.446C264.582 127.088 265.272 126.594 265.775 125.963C266.278 125.324 266.53 124.578 266.53 123.726C266.53 122.95 266.308 122.315 265.865 121.821C265.43 121.327 264.838 120.918 264.088 120.594C263.346 120.27 262.507 119.984 261.569 119.737L258.476 118.893C256.379 118.322 254.717 117.483 253.49 116.375C252.271 115.267 251.662 113.801 251.662 111.977C251.662 110.469 252.071 109.152 252.889 108.027C253.707 106.902 254.815 106.028 256.213 105.406C257.61 104.776 259.187 104.46 260.943 104.46C262.716 104.46 264.28 104.771 265.635 105.393C266.998 106.016 268.072 106.872 268.856 107.963C269.64 109.045 270.049 110.29 270.083 111.696H266.274ZM283.771 108.219V104.818H304.034V108.219H295.865V131H291.927V108.219H283.771ZM323.538 131L316.276 104.818H320.431L325.532 125.094H325.775L331.08 104.818H335.197L340.502 125.107H340.745L345.833 104.818H350.001L342.727 131H338.751L333.241 111.389H333.036L327.526 131H323.538ZM367.453 104.818V131H363.503V104.818H367.453ZM381.815 108.219V104.818H402.077V108.219H393.908V131H389.971V108.219H381.815ZM430.735 111.696C430.598 110.486 430.036 109.548 429.047 108.884C428.059 108.21 426.814 107.874 425.314 107.874C424.24 107.874 423.311 108.044 422.527 108.385C421.743 108.717 421.134 109.178 420.699 109.766C420.273 110.345 420.06 111.006 420.06 111.747C420.06 112.369 420.205 112.906 420.495 113.358C420.793 113.81 421.181 114.189 421.658 114.496C422.144 114.794 422.664 115.045 423.218 115.25C423.772 115.446 424.304 115.608 424.816 115.736L427.373 116.401C428.208 116.605 429.064 116.882 429.942 117.232C430.82 117.581 431.634 118.041 432.384 118.612C433.134 119.183 433.739 119.891 434.199 120.734C434.668 121.578 434.902 122.588 434.902 123.764C434.902 125.247 434.519 126.564 433.752 127.715C432.993 128.865 431.89 129.773 430.441 130.438C429 131.102 427.257 131.435 425.212 131.435C423.252 131.435 421.556 131.124 420.124 130.501C418.692 129.879 417.571 128.997 416.762 127.855C415.952 126.705 415.505 125.341 415.419 123.764H419.382C419.459 124.71 419.766 125.499 420.303 126.129C420.848 126.751 421.543 127.216 422.387 127.523C423.239 127.821 424.172 127.97 425.186 127.97C426.303 127.97 427.296 127.795 428.165 127.446C429.043 127.088 429.733 126.594 430.236 125.963C430.739 125.324 430.99 124.578 430.99 123.726C430.99 122.95 430.769 122.315 430.326 121.821C429.891 121.327 429.299 120.918 428.549 120.594C427.807 120.27 426.968 119.984 426.03 119.737L422.936 118.893C420.84 118.322 419.178 117.483 417.951 116.375C416.732 115.267 416.123 113.801 416.123 111.977C416.123 110.469 416.532 109.152 417.35 108.027C418.168 106.902 419.276 106.028 420.674 105.406C422.071 104.776 423.648 104.46 425.404 104.46C427.177 104.46 428.74 104.771 430.096 105.393C431.459 106.016 432.533 106.872 433.317 107.963C434.101 109.045 434.51 110.29 434.544 111.696H430.735Z" fill="white"/>
</svg>
